# xmcd
#
# Track frame offsets:
#	150
#	11014
#	24895
#	37440
#	50285
#	62311
#	71680
#	81627
#	93085
#	103616
#
# Disc length: 1500 seconds
#
# Revision: 1
# Processed by: cddbd v1.5.2PL0 Copyright (c) Steve Scherf et al.
# Submitted via: audiograbber 1.83.01
#
DISCID=7b05da0a
DTITLE=Dolly Parton and Porter Wagoner - The Best Of Dolly Parton and Porter Wagone
DTITLE=r
DYEAR=1971
DGENRE=Country
TTITLE0=Just Someone I Used To Know
TTITLE1=Daddy Was An Old Time Preacher Man
TTITLE2=Tomorrow Is Forever
TTITLE3=Jeannie's Afraid of The Dark
TTITLE4=The Last Thing On My Mind
TTITLE5=The Pain Of Loving You
TTITLE6=Better Move It On Home
TTITLE7=Holding On To Nothin'
TTITLE8=Run That By Me One More Time
TTITLE9=We'll Get Ahead Someday
EXTD=
EXTT0=
EXTT1=
EXTT2=
EXTT3=
EXTT4=
EXTT5=
EXTT6=
EXTT7=
EXTT8=
EXTT9=
PLAYORDER=
